# xmcd
#
# Track frame offsets: 
#        150
#        17946
#        36243
#        53796
#        74863
#        93051
#        109203
#        128030
#        141825
#        151168
#        167348
#        183489
#        199707
#        216534
#        235122
#        256071
#        271328
#        285528
#        309232
#
# Disc length: 4326 seconds
#
# Revision: 0
# Processed by: cddbd v1.5.2PL0 Copyright (c) Steve Scherf et al.
# Submitted via: ExactAudioCopy v0.95b4
#
DISCID=0f10e413
DTITLE=Brad Keeler - Long Lonsome Hiighway
DYEAR=2001
DGENRE=Blues
TTITLE0=broke down engine
TTITLE1=empire state blues
TTITLE2=georgia rag
TTITLE3=queen bee
TTITLE4=rising sun blues
TTITLE5=hesitation blues
TTITLE6='til the mailman gets back
TTITLE7=ain't misbehavin'
TTITLE8=if you's a viper
TTITLE9=over the rainbow
TTITLE10=police dog blues
TTITLE11=all of me
TTITLE12=how long blues
TTITLE13=samson and delilah
TTITLE14=let us get together
TTITLE15=low down dog blues
TTITLE16=king edward blues
TTITLE17=foosteps on my back stairs
TTITLE18=long lonesome highway
EXTD=
EXTT0=
EXTT1=
EXTT2=
EXTT3=
EXTT4=
EXTT5=
EXTT6=
EXTT7=
EXTT8=
EXTT9=
EXTT10=
EXTT11=
EXTT12=
EXTT13=
EXTT14=
EXTT15=
EXTT16=
EXTT17=
EXTT18=
PLAYORDER=
